<?xml version="1.0" standalone="no"?>
<!DOCTYPE svg PUBLIC "-//W3C//DTD SVG 20010904//EN"
 "http://www.w3.org/TR/2001/REC-SVG-20010904/DTD/svg10.dtd">
<svg version="1.0" xmlns="http://www.w3.org/2000/svg"
 width="530.000000pt" height="530.000000pt" viewBox="0 0 530.000000 530.000000"
 preserveAspectRatio="xMidYMid meet">
<metadata>
Created by potrace 1.14, written by Peter Selinger 2001-2017
</metadata>
<g transform="translate(0.000000,530.000000) scale(0.100000,-0.100000)"
fill="#000000" stroke="none">
<path d="M2515 4709 c-33 -4 -85 -9 -115 -13 -30 -3 -70 -10 -87 -15 -18 -5
-33 -8 -33 -6 0 3 -10 1 -23 -4 -13 -5 -41 -12 -63 -15 -103 -16 -413 -142
-539 -219 -66 -40 -111 -71 -117 -81 -4 -6 -8 -7 -8 -3 0 7 -68 -39 -80 -54
-3 -4 -27 -24 -55 -44 -27 -21 -51 -42 -53 -47 -2 -4 -8 -8 -13 -8 -12 0 -170
-159 -206 -208 -15 -20 -30 -39 -33 -42 -4 -3 -19 -23 -35 -45 -17 -22 -33
-42 -37 -45 -32 -24 -193 -324 -207 -385 -1 -5 -10 -18 -18 -27 -9 -10 -13
-18 -9 -18 3 0 0 -10 -8 -22 -15 -24 -51 -137 -48 -151 1 -4 -5 -21 -13 -37
-9 -17 -14 -30 -11 -30 2 0 -2 -17 -9 -37 -20 -57 -13 -63 71 -63 42 0 75 4
75 10 2 15 4 22 13 50 5 14 10 32 11 40 0 8 6 33 13 55 6 22 12 45 13 50 0 6
6 19 12 30 6 11 12 26 13 33 1 8 15 39 30 70 16 32 29 59 30 62 8 39 33 51 54
25 7 -8 16 -12 21 -9 5 3 9 1 9 -4 0 -5 8 -13 18 -16 66 -24 92 -55 92 -113 0
-33 5 -45 21 -54 26 -13 27 -12 75 81 21 41 60 107 86 147 47 70 47 72 28 86
-18 12 -26 11 -71 -10 l-51 -25 -52 28 c-28 15 -65 37 -83 49 l-32 21 42 60
c61 87 112 149 192 232 l70 73 38 -42 c81 -89 90 -105 79 -141 -20 -65 -20
-77 -2 -93 17 -15 22 -12 88 52 39 37 92 84 119 103 82 60 83 61 71 83 -8 17
-18 19 -69 15 -58 -4 -60 -3 -85 29 -14 18 -40 50 -59 70 -24 26 -31 41 -24
49 8 10 74 53 164 107 11 7 22 14 25 17 3 3 16 11 29 18 13 8 39 22 57 33 19
10 34 16 34 13 0 -3 15 4 34 15 18 12 40 21 48 21 13 0 46 -76 63 -144 2 -10
6 -21 9 -23 2 -3 -11 -25 -29 -49 -31 -41 -34 -56 -18 -86 2 -4 25 2 51 14 83
37 137 60 152 62 3 1 23 6 45 13 22 7 52 15 67 18 43 8 32 46 -18 64 -21 7
-47 14 -57 15 -9 0 -17 3 -17 6 0 3 -15 44 -33 92 -34 85 -34 87 -13 92 11 3
23 5 26 5 3 0 19 5 35 11 33 13 108 29 170 36 21 3 42 7 46 10 4 2 46 7 93 10
l86 5 0 -91 c0 -98 -2 -103 -57 -135 -17 -10 -34 -27 -37 -38 -10 -39 0 -43
95 -35 50 4 129 4 175 0 47 -5 87 -6 89 -3 12 11 3 48 -15 64 -11 9 -20 14
-20 12 0 -3 -10 3 -22 15 -12 11 -24 20 -28 20 -3 0 -6 43 -6 96 l0 95 90 -6
c49 -3 92 -8 96 -10 4 -2 31 -7 60 -10 30 -4 61 -10 71 -15 9 -5 19 -7 21 -4
3 2 16 0 29 -5 13 -6 43 -15 66 -21 l42 -10 -32 -93 c-18 -50 -37 -92 -42 -93
-48 -3 -88 -20 -102 -41 -21 -31 -22 -31 65 -49 41 -8 113 -35 189 -69 l74
-34 11 24 c9 20 6 30 -21 67 l-32 44 17 45 c8 24 17 49 18 54 1 6 8 27 16 47
13 36 14 37 39 23 14 -8 46 -23 71 -35 51 -23 104 -52 122 -68 7 -6 16 -11 21
-11 6 0 148 -92 166 -107 5 -5 -46 -72 -88 -115 -35 -36 -37 -37 -89 -30 -47
7 -55 5 -67 -13 -17 -23 -11 -30 65 -81 24 -16 74 -57 110 -90 98 -90 97 -90
110 -66 8 16 7 34 -3 74 l-14 54 29 34 c17 19 45 51 62 73 l33 38 54 -53 c30
-30 72 -76 94 -104 22 -27 50 -60 62 -72 12 -12 24 -32 28 -43 3 -11 10 -20
15 -20 4 0 17 -15 27 -32 18 -30 27 -52 20 -45 -1 1 -15 -8 -31 -20 -16 -13
-35 -23 -42 -23 -8 0 -14 -4 -14 -9 0 -5 -8 -11 -17 -15 -10 -3 -25 -11 -34
-17 -13 -10 -26 -8 -64 10 -45 21 -95 23 -95 3 0 -4 15 -31 34 -59 19 -28 31
-54 28 -57 -3 -3 -1 -6 4 -6 9 0 57 -73 59 -90 4 -21 51 -100 61 -100 19 0 38
29 40 63 1 18 2 39 3 49 2 22 158 115 171 101 21 -22 124 -290 134 -349 3 -16
11 -41 17 -56 11 -27 14 -28 86 -28 66 0 74 2 69 18 -3 9 -7 28 -10 42 -9 54
-38 155 -52 182 -8 15 -12 28 -9 28 3 0 0 10 -7 23 -6 12 -13 28 -14 36 -3 18
-132 278 -155 311 -9 14 -42 63 -72 110 -106 163 -328 386 -487 490 -12 8 -35
25 -49 36 -24 20 -104 68 -161 97 -14 7 -50 26 -80 42 -30 16 -57 30 -60 30
-3 1 -16 6 -30 12 -23 11 -58 24 -70 28 -3 1 -22 9 -43 18 -36 16 -103 37
-136 43 -8 2 -26 6 -40 9 -14 4 -28 7 -31 7 -3 0 -15 4 -28 9 -13 5 -37 11
-55 14 -18 3 -43 7 -57 10 -14 3 -38 7 -55 9 -16 2 -50 8 -75 12 -59 9 -318
11 -395 3z"/>
<path d="M1483 3049 c-86 -16 -174 -78 -219 -155 -33 -56 -39 -85 -38 -169 2
-86 32 -152 97 -212 67 -62 127 -85 222 -86 97 -2 166 26 232 92 67 67 88 121
88 221 0 73 -4 92 -27 135 -74 136 -207 202 -355 174z m135 -24 c10 -10 -42
-55 -64 -55 -12 0 -37 12 -55 28 l-33 27 30 6 c32 6 114 2 122 -6z m-141 -40
c47 -49 96 -49 142 -1 19 19 40 32 47 29 10 -4 3 -17 -26 -44 -22 -21 -43 -40
-48 -40 -63 -12 -88 -6 -129 34 -23 22 -40 44 -37 49 8 13 15 10 51 -27z m-33
-43 c49 -47 53 -48 107 -46 54 1 59 4 101 48 43 44 68 58 68 36 0 -21 -112
-117 -133 -116 -12 1 -25 -3 -29 -9 -6 -7 -10 -7 -15 0 -5 6 -18 10 -31 9 -25
-1 -146 102 -136 117 9 15 15 11 68 -39z m266 -71 l-62 -57 1 -76 0 -75 63
-61 c46 -45 60 -64 52 -72 -8 -8 -29 6 -78 52 -51 49 -74 64 -94 62 -41 -2
-42 -3 -42 -19 0 -10 10 -15 32 -15 24 0 43 -12 85 -52 29 -29 53 -56 53 -60
0 -20 -30 -4 -70 37 -42 43 -47 45 -103 45 -57 0 -60 -1 -107 -49 -30 -30 -52
-46 -60 -41 -21 13 99 120 133 120 22 0 28 4 25 18 -2 12 -12 17 -36 16 -26
-2 -46 -15 -95 -63 -47 -47 -64 -58 -74 -49 -11 9 -1 24 52 72 l65 61 0 71 0
71 -67 66 c-56 55 -64 67 -49 73 13 5 33 -9 79 -54 l62 -60 75 1 75 2 65 62
c51 49 67 59 73 47 6 -11 -8 -30 -53 -73z m-346 -21 c46 -48 57 -66 54 -85 -3
-14 -1 -25 4 -25 5 0 6 -5 2 -12 -4 -7 -8 -22 -9 -34 0 -13 -22 -42 -54 -70
-62 -56 -71 -61 -71 -41 0 8 21 33 47 56 44 40 46 45 47 97 1 52 -1 56 -46
101 -44 43 -60 73 -40 73 4 0 33 -27 66 -60z m395 -12 c-48 -49 -49 -52 -48
-104 2 -51 5 -57 49 -98 31 -29 45 -49 39 -57 -11 -18 -120 92 -122 123 0 13
-6 26 -12 30 -7 5 -7 8 1 8 6 0 11 12 10 26 -1 20 14 41 59 85 73 70 94 58 24
-13z m-404 -100 c2 -38 -2 -47 -37 -80 -37 -37 -58 -47 -58 -30 0 4 16 23 35
42 48 47 48 87 -1 134 -21 20 -33 40 -29 47 5 7 21 -2 48 -29 33 -33 40 -48
42 -84z m445 68 c-49 -48 -50 -95 -4 -135 32 -29 44 -51 26 -51 -4 0 -24 16
-44 35 -57 56 -56 110 5 173 21 21 34 29 41 22 7 -7 -1 -21 -24 -44z m-494
-69 c2 -17 -7 -34 -27 -53 -20 -19 -29 -23 -30 -13 0 8 -3 27 -5 44 -3 16 -2
45 1 64 l6 34 26 -26 c15 -14 27 -37 29 -50z m543 15 c1 -26 -2 -58 -6 -70
l-9 -23 -22 24 c-33 35 -35 62 -6 97 14 17 29 28 33 26 4 -3 8 -27 10 -54z
m-218 -238 c21 -21 39 -42 39 -46 0 -16 -17 -8 -48 23 -20 19 -44 32 -68 35
-32 4 -42 0 -73 -30 -22 -21 -41 -32 -48 -28 -8 5 -1 19 25 43 42 41 53 46 99
44 25 -2 45 -13 74 -41z m-28 -35 l26 -27 -37 -5 c-20 -3 -48 -4 -62 -3 -14 2
-34 4 -44 5 -18 1 -17 4 7 29 34 36 75 36 110 1z"/>
<path d="M1504 2765 c-14 -22 -15 -30 -4 -50 7 -14 22 -27 32 -31 27 -8 68 22
68 51 0 54 -67 75 -96 30z"/>
<path d="M572 3000 c-17 -11 -36 -29 -43 -41 -15 -28 -19 -477 -4 -488 9 -6
61 -7 115 -2 13 1 16 24 15 160 0 88 3 157 8 154 4 -2 17 -23 28 -46 52 -103
131 -167 181 -148 36 14 94 77 125 137 15 30 31 54 34 54 3 0 6 -67 6 -150 1
-82 4 -153 7 -158 2 -4 33 -8 68 -7 l63 0 1 230 c2 247 -3 279 -49 304 -82 44
-162 -15 -247 -181 -14 -27 -27 -48 -30 -48 -4 0 -25 34 -48 74 -47 83 -121
166 -149 167 -10 0 -25 2 -35 4 -9 2 -30 -5 -46 -15z"/>
<path d="M1878 2957 c-2 -32 0 -64 4 -70 3 -6 35 -11 70 -11 l63 -1 1 -200 c1
-110 2 -202 3 -205 1 -5 109 -5 131 -1 3 1 5 123 5 271 0 149 -2 270 -5 271
-3 1 -64 2 -137 3 l-131 2 -4 -59z"/>
<path d="M2185 3010 c-2 -3 -3 -33 -3 -68 1 -65 0 -64 53 -64 14 0 31 0 38 1
11 1 97 117 97 131 0 7 -181 7 -185 0z"/>
<path d="M2453 3009 c-10 -4 -25 -14 -32 -23 -17 -20 -22 -104 -7 -109 6 -1
106 -3 221 -2 l210 1 0 39 c1 51 -13 83 -39 92 -28 9 -328 11 -353 2z"/>
<path d="M2903 3004 c-2 -6 -3 -38 -1 -70 l3 -59 140 -1 c77 -1 145 -2 151 -3
7 0 12 -20 11 -51 l0 -50 -84 0 -83 0 0 40 0 40 -70 0 -70 0 0 -193 0 -192 71
0 70 0 -1 40 c-1 22 -1 59 -1 83 1 41 2 42 36 42 32 0 38 -6 90 -82 l55 -82
72 -2 c40 0 76 1 81 3 4 3 -2 17 -13 33 -11 15 -20 31 -20 34 0 3 -14 25 -31
48 -28 40 -29 43 -13 55 10 7 21 13 25 13 17 0 23 51 24 179 0 132 -1 135 -26
160 l-26 26 -193 0 c-134 0 -194 -3 -197 -11z"/>
<path d="M3457 3012 c-9 -2 -23 -16 -30 -30 -16 -31 -22 -102 -10 -103 25 -3
433 -4 433 0 0 3 -78 120 -87 131 -5 6 -278 7 -306 2z"/>
<path d="M3921 3012 c-31 -10 -55 -130 -27 -133 39 -4 426 -3 427 1 9 43 3 86
-17 109 l-22 26 -175 0 c-96 0 -180 -1 -186 -3z"/>
<path d="M4450 3008 c-13 -5 -34 -19 -45 -31 -19 -20 -20 -37 -23 -267 l-3
-246 63 2 c35 1 65 2 68 3 3 1 5 70 5 154 -1 83 0 156 3 160 2 4 45 -54 95
-130 89 -136 127 -182 150 -184 63 -6 119 20 132 62 9 26 10 463 2 476 -3 5
-34 9 -69 8 l-63 0 -2 -125 c-3 -234 10 -225 -95 -65 -122 187 -148 209 -218
183z"/>
<path d="M2405 2680 c1 -227 -11 -214 208 -215 169 -1 210 5 223 33 4 9 8 92
10 185 l2 167 -69 0 -68 0 -3 -122 -3 -122 -77 -1 c-46 -1 -79 3 -81 9 -2 6
-3 62 -2 124 l1 112 -71 0 -71 0 1 -170z"/>
<path d="M3413 2682 c-1 -228 -12 -215 186 -217 83 -1 155 1 159 4 5 3 27 34
50 68 27 39 37 63 29 65 -7 3 -74 4 -149 3 l-138 -1 0 123 0 123 -69 0 -68 0
0 -168z"/>
<path d="M3882 2680 c1 -229 -15 -214 215 -215 241 -1 227 -14 228 214 l1 171
-71 0 -71 0 1 -122 0 -123 -82 0 -83 0 0 122 0 123 -69 0 -70 0 1 -170z"/>
<path d="M664 2344 c3 -25 8 -49 10 -53 3 -3 7 -28 10 -55 3 -26 8 -52 11 -57
4 -5 8 -18 10 -29 10 -50 68 -221 91 -271 25 -51 46 -99 49 -109 0 -3 6 -14
12 -25 6 -11 22 -40 36 -65 72 -132 138 -232 181 -275 9 -9 16 -20 16 -25 0
-15 253 -266 308 -304 28 -21 52 -42 52 -47 0 -6 4 -8 9 -4 5 3 13 0 16 -6 7
-11 231 -159 241 -159 12 0 80 -34 98 -49 10 -9 20 -15 22 -13 3 2 24 -5 47
-16 42 -20 246 -91 280 -98 10 -2 26 -5 35 -8 9 -3 37 -8 62 -11 24 -4 51 -10
60 -14 8 -4 29 -8 45 -9 17 -1 55 -6 85 -11 69 -11 431 -11 480 0 20 5 56 11
81 14 24 3 55 7 69 10 14 3 34 7 46 9 35 7 248 68 259 75 6 3 12 6 15 7 5 1
34 12 113 46 70 30 158 77 168 91 3 5 9 8 13 8 6 -1 55 23 87 44 32 20 144 99
149 104 3 4 30 25 60 47 65 49 199 179 255 249 22 28 47 57 56 65 24 23 121
170 112 170 -4 0 -3 4 4 8 31 20 202 375 218 454 2 9 9 26 15 37 6 12 8 21 6
21 -3 0 1 18 9 39 7 22 11 41 9 44 -3 2 0 16 6 31 5 15 12 37 14 49 2 12 8 40
13 62 17 75 32 70 -214 73 l-221 2 -13 -37 c-7 -21 -13 -47 -15 -58 -2 -11 -7
-35 -13 -52 -5 -18 -6 -33 -1 -33 5 0 14 -2 22 -5 7 -3 33 13 57 35 46 43 46
43 131 25 3 0 23 -4 45 -9 22 -4 43 -10 47 -12 3 -2 -2 -32 -13 -67 -11 -34
-21 -71 -23 -82 -4 -18 -25 -78 -51 -140 -5 -11 -9 -22 -10 -25 -3 -16 -59
-130 -62 -130 -3 0 -17 8 -31 18 -15 11 -51 32 -79 47 -36 19 -53 35 -54 49
-1 12 -2 35 -3 51 -4 81 -44 75 -87 -12 -18 -38 -58 -105 -88 -151 -50 -76
-53 -84 -38 -99 14 -15 20 -14 66 5 27 12 55 22 61 22 14 0 159 -83 160 -91 1
-31 -277 -359 -303 -359 -7 0 -28 22 -47 47 -19 26 -45 57 -58 70 l-22 22 18
54 c17 51 17 54 0 72 -20 21 -22 20 -103 -60 -22 -22 -75 -66 -118 -98 -75
-56 -78 -60 -62 -77 13 -15 28 -18 70 -15 60 5 63 2 134 -84 l45 -54 -30 -24
c-51 -41 -269 -167 -278 -161 -2 2 -12 -4 -22 -12 -31 -26 -71 -43 -83 -35 -6
3 -9 10 -6 15 3 5 1 11 -5 15 -5 3 -10 12 -10 20 0 8 -4 24 -9 37 -5 13 -10
28 -11 33 -1 6 -6 18 -12 28 -7 14 -2 29 21 64 33 49 36 60 23 81 -9 13 -30 7
-131 -40 -25 -11 -52 -21 -60 -23 -23 -5 -155 -47 -159 -50 -2 -2 1 -12 7 -23
7 -14 29 -25 65 -33 51 -11 54 -14 66 -53 7 -22 12 -42 11 -43 0 -2 9 -24 20
-50 15 -36 17 -48 7 -54 -6 -4 -15 -6 -19 -3 -4 2 -20 -1 -36 -7 -15 -6 -29
-10 -30 -10 -2 0 -17 -5 -35 -10 -18 -5 -53 -12 -77 -15 -24 -2 -47 -7 -52 -9
-4 -3 -34 -7 -66 -10 -32 -2 -77 -7 -100 -10 -24 -4 -44 -3 -44 2 -1 4 -2 47
-3 96 l-1 88 40 27 c49 33 55 40 55 70 0 22 -3 23 -42 17 -38 -7 -234 -8 -297
-2 -17 1 -25 -4 -27 -20 -3 -16 8 -30 46 -58 l50 -37 0 -95 0 -95 -48 7 c-27
3 -72 8 -100 10 -28 2 -59 6 -69 9 -10 3 -37 8 -60 11 -23 3 -52 9 -65 14 -13
5 -25 9 -28 9 -7 0 -61 13 -82 19 -21 5 -24 33 -6 51 7 7 9 12 5 12 -4 0 4 25
18 55 13 31 24 58 24 62 0 4 26 15 58 24 88 27 78 66 -20 83 -21 4 -91 27
-122 41 -39 17 -135 55 -140 55 -2 0 -5 -10 -7 -23 -2 -13 9 -40 26 -66 l29
-44 -28 -84 c-15 -46 -31 -86 -35 -88 -10 -6 -183 77 -200 96 -3 3 -12 8 -22
12 -9 3 -55 31 -103 62 -78 50 -85 58 -74 73 8 9 36 43 63 74 l49 58 57 -4
c49 -4 58 -1 69 16 11 18 11 22 -2 30 -9 5 -22 14 -29 21 -7 7 -35 29 -63 49
-27 20 -75 62 -105 92 -30 31 -60 56 -67 56 -22 0 -33 -35 -22 -71 20 -65 20
-78 2 -88 -10 -6 -14 -11 -10 -11 4 0 -5 -13 -21 -28 -16 -16 -37 -41 -47 -55
-23 -36 -37 -34 -75 11 -18 20 -59 65 -91 99 -32 34 -66 74 -76 90 -9 15 -20
30 -23 33 -9 9 -70 98 -70 103 0 3 11 8 25 11 14 4 25 11 25 16 0 6 4 10 10
10 5 0 31 13 58 29 l49 29 47 -24 c36 -18 52 -21 72 -14 28 11 29 7 -30 95
-23 33 -61 99 -86 147 -45 86 -46 87 -68 72 -15 -10 -22 -25 -22 -49 0 -52
-15 -78 -56 -100 -22 -11 -55 -29 -76 -42 -43 -26 -42 -27 -88 72 -38 83 -81
211 -79 235 0 3 -5 19 -11 35 -7 17 -14 42 -16 56 -4 24 -1 27 33 34 21 4 48
9 60 10 12 2 36 6 53 10 28 6 37 2 74 -34 44 -43 83 -50 79 -15 -6 45 -15 89
-25 113 -5 14 -9 27 -9 29 6 19 -21 22 -224 22 l-226 0 5 -46z"/>
</g>
</svg>
